<svg width="180" height="36" viewBox="0 0 180 36" fill="none" xmlns="http://www.w3.org/2000/svg">
<path d="M25.4799 28.292V33.2948H7.17788V28.292H25.4799ZM29.364 21.6424V26.6296H7.16234V21.6424H29.364ZM31.0264 14.9772V19.98H7.17788V14.9772H31.0264ZM29.3485 8.32757V13.3148H7.16234V8.32757H29.3485ZM25.4644 1.66241V6.66517H7.1468V1.66241H25.4644ZM5.54654 34.9572H0V0H5.54654V34.9572Z" fill="black"/>
<path fill-rule="evenodd" clip-rule="evenodd" d="M40.6621 35.1988C38.6656 35.1988 37.0365 34.6303 35.7748 33.4934C34.5132 32.3704 33.8823 30.8592 33.8823 28.9598C33.8823 27.6704 34.2289 26.5335 34.9222 25.5491C35.6154 24.5508 36.6552 23.7675 38.0417 23.1991C39.4559 22.6306 41.2097 22.3464 43.3032 22.3464H45.4661V21.1194C45.4661 20.2875 45.2304 19.5874 44.759 19.0189C44.2876 18.4366 43.5459 18.1455 42.5338 18.1455C41.6742 18.1455 40.9255 18.3534 40.2877 18.7694L39.8302 21.4105H35.1093L35.0054 15.6499C36.1838 15.123 37.4108 14.6724 38.6864 14.2981C39.9758 13.9099 41.4107 13.7158 42.9913 13.7158C45.8058 13.7158 48.0449 14.3674 49.7086 15.6707C51.3585 16.96 52.1834 18.804 52.1834 21.2026C52.1834 21.4937 52.1834 29.4173 52.1834 29.6876C52.1973 29.9788 52.232 30.2491 52.2874 30.4987L54.5335 30.873V34.8036H46.6723C46.5059 34.5679 46.3326 34.2629 46.1524 33.8886C45.9583 33.5004 45.8196 33.1191 45.7365 32.7447C45.1126 33.5212 44.4124 34.1243 43.636 34.5541C42.8596 34.9839 41.8683 35.1988 40.6621 35.1988ZM42.7417 30.4571C43.227 30.4571 43.7122 30.3601 44.1975 30.166C44.6966 29.9719 45.1195 29.6738 45.4661 29.2717V26.2978H43.3864C42.4852 26.2978 41.7851 26.4919 41.286 26.8801C40.8007 27.2822 40.5581 27.809 40.5581 28.4606C40.5581 29.0845 40.7591 29.5698 41.1612 29.9164C41.5771 30.2769 42.104 30.4571 42.7417 30.4571ZM65.0982 35.1988C63.476 35.1988 61.951 35.0532 60.5229 34.762C59.1226 34.457 57.854 34.0411 56.7171 33.5142L56.6547 27.0672H61.1884L61.9579 30.0828C62.2213 30.2491 62.561 30.3947 62.9769 30.5195C63.4067 30.6304 63.9128 30.6859 64.4951 30.6859C65.5765 30.6859 66.3252 30.5403 66.7411 30.2491C67.1432 29.958 67.3442 29.5906 67.3442 29.1469C67.3442 28.6894 67.1155 28.2873 66.6579 27.9407C66.2004 27.5941 65.2022 27.2752 63.6632 26.9841C61.2508 26.5127 59.4692 25.7085 58.3185 24.5716C57.1677 23.4209 56.5923 21.9929 56.5923 20.2875C56.5923 19.109 56.8627 18.0345 57.4034 17.064C57.9303 16.0797 58.8037 15.2894 60.0238 14.6932C61.2439 14.0832 62.8729 13.7782 64.911 13.7782C66.4638 13.7782 67.9473 13.9099 69.3615 14.1733C70.7757 14.4367 71.9334 14.7764 72.8346 15.1923L72.8138 21.4313H68.3009L67.7186 18.7486C67.1224 18.3465 66.3807 18.1455 65.4933 18.1455C64.6337 18.1455 64.0098 18.298 63.6216 18.603C63.2196 18.908 63.0185 19.3031 63.0185 19.7884C63.0185 20.0518 63.1086 20.3291 63.2889 20.6203C63.483 20.9391 63.8712 21.2303 64.4535 21.4937C65.0358 21.7433 65.729 21.9582 66.5332 22.1384C68.904 22.6653 70.6786 23.3932 71.8571 24.3221C73.0633 25.251 73.6664 26.6652 73.6664 28.5646C73.6664 30.6027 72.9316 32.2248 71.462 33.431C70.0062 34.6095 67.8849 35.1988 65.0982 35.1988ZM84.7511 20.1419V30.2699L86.7268 30.873V34.8036H75.6421V30.873L78.0753 30.2699V9.51483L75.1638 8.89093V4.96035H84.7511V16.6689C85.3611 15.74 86.1306 15.019 87.0595 14.506C87.9746 13.9792 89.0352 13.7158 90.2414 13.7158C92.2379 13.7158 93.8392 14.4298 95.0454 15.8578C96.2655 17.272 96.8756 19.4695 96.8756 22.4504V30.2699L99.288 30.873V34.8036H88.1825V30.873L90.1582 30.2699V22.4088C90.1582 21.0501 89.9295 20.1211 89.4719 19.622C89.0144 19.1229 88.3628 18.8734 87.517 18.8734C86.9209 18.8734 86.3871 18.9704 85.9157 19.1645C85.4443 19.3725 85.0561 19.6983 84.7511 20.1419ZM110.581 35.1988C108.515 35.1988 106.747 34.7482 105.277 33.847C103.794 32.9458 102.657 31.7049 101.867 30.1244C101.076 28.5438 100.681 26.7345 100.681 24.6964V24.2597C100.681 22.1939 101.097 20.3638 101.929 18.7694C102.747 17.1888 103.891 15.9479 105.361 15.0468C106.83 14.1594 108.549 13.7158 110.518 13.7158C112.487 13.7158 114.178 14.0139 115.593 14.61C117.007 15.2201 118.123 15.844 118.941 16.4817L118.816 23.0119H113.825L113.014 19.2685C112.806 19.0466 112.515 18.8664 112.14 18.7278C111.78 18.5891 111.482 18.5198 111.246 18.5198C110.289 18.5198 109.527 18.7208 108.958 19.1229C108.404 19.5527 108.002 20.1905 107.752 21.0362C107.517 21.8681 107.399 22.9426 107.399 24.2597V24.6964C107.399 26.0413 107.565 27.1158 107.898 27.9199C108.231 28.6963 108.64 29.2578 109.125 29.6044C109.61 29.9372 110.116 30.1036 110.643 30.1036C111.447 30.1036 112.064 29.9025 112.494 29.5005C112.951 29.0984 113.298 28.5092 113.534 27.7327H119.17L119.232 27.8367C118.927 29.4727 118.449 30.8384 117.797 31.9337C117.145 33.0151 116.244 33.8331 115.093 34.3877C113.943 34.9284 112.438 35.1988 110.581 35.1988ZM131.689 35.1988C129.568 35.1988 127.752 34.7551 126.241 33.8678C124.729 32.9804 123.579 31.7465 122.788 30.166C121.984 28.5715 121.582 26.7276 121.582 24.634V24.2597C121.582 22.1939 121.984 20.3707 122.788 18.7902C123.579 17.2096 124.722 15.9687 126.22 15.0675C127.731 14.1664 129.54 13.7158 131.648 13.7158C133.783 13.7158 135.606 14.1594 137.117 15.0468C138.601 15.9479 139.738 17.1888 140.528 18.7694C141.332 20.3499 141.734 22.18 141.734 24.2597V24.634C141.734 26.6998 141.339 28.5369 140.549 30.1452C139.745 31.7257 138.594 32.9666 137.096 33.8678C135.599 34.7551 133.797 35.1988 131.689 35.1988ZM152.923 4.96035V10.1803H146.018V4.96035H152.923ZM143.315 14.0901H152.923V30.2699L155.314 30.873V34.8036H143.772V30.873L146.205 30.2699V18.6446L143.315 18.0415V14.0901ZM165.505 20.2043V30.2699L167.231 30.873V34.8036H156.375V30.873L158.787 30.2699V18.6446L155.917 18.0415V14.0901H165.13L165.38 16.9808C166.059 15.941 166.898 15.1369 167.896 14.5684C168.908 14 170.052 13.7158 171.328 13.7158C173.269 13.7158 174.801 14.3674 175.924 15.6707C177.033 16.9878 177.588 19.0744 177.588 21.9305V30.2699L180 30.873V34.8036H168.915V30.873L170.87 30.2699V21.9097C170.87 20.8005 170.641 20.0172 170.184 19.5596C169.74 19.0882 169.103 18.8525 168.271 18.8525C167.092 18.8525 166.17 19.3031 165.505 20.2043Z" fill="black"/>
<path d="M130.899 29.1261V30.6443H132.791V29.1469C134.351 28.8974 135.058 28.0031 135.058 26.4641C135.058 24.9668 133.935 24.2805 132.251 23.615C131.128 23.1783 130.795 22.9079 130.795 22.5128C130.795 22.076 131.19 21.7225 131.876 21.7225C132.459 21.7225 133.145 21.9721 133.686 22.3048L134.559 20.7242C134.102 20.3083 133.603 19.9964 132.791 19.8716V18.4782H130.899V19.9548C129.318 20.1835 128.757 21.3066 128.757 22.5752C128.757 23.719 129.464 24.4885 131.169 25.1955C132.417 25.7155 132.791 26.0066 132.791 26.5057C132.791 27.0256 132.334 27.3792 131.606 27.3792C130.878 27.3792 130.046 27.0464 129.298 26.4225L128.258 28.0031C128.882 28.7102 129.651 29.0429 130.899 29.1261Z" fill="white"/>
</svg>
